<?xml version="1.0" encoding="UTF-8"?><svg id="Layer_2" xmlns="http://www.w3.org/2000/svg" viewBox="0 0 1305.026 1305.026"><defs><style>.cls-1{fill:none;stroke:#ed1c24;stroke-miterlimit:10;stroke-width:2px;}</style></defs><g id="Layer_10"><path class="cls-1" d="M652.5129,559.3422l93.0338,93.0339c51.381,51.381,51.381,134.6861,0,186.0671h0s0,.0002,0,.0002c51.381,51.381,51.381,134.6861,0,186.0671l-93.0339,93.0338c-51.381,51.381-51.3811,134.6861,0,186.0671h0s465.1684-465.168,465.1684-465.168l-465.1681-465.1684h0c-51.381,51.3811-51.3811,134.6862,0,186.0672Z"/><path class="cls-1" d="M652.5129,373.2748l93.0338,93.0339c51.381,51.381,51.381,134.6861,0,186.0671h0s0,.0002,0,.0002c51.381,51.381,51.381,134.6861,0,186.0671l-93.0339,93.0338c-51.381,51.381-51.3811,134.6861,0,186.0671h0s465.1684-465.168,465.1684-465.168l-465.1681-465.1684h0c-51.381,51.3811-51.3811,134.6862,0,186.0672Z"/><path class="cls-1" d="M652.5129,187.4814l93.0338,93.0339c51.381,51.381,51.381,134.6861,0,186.0671h0s0,.0002,0,.0002c51.381,51.381,51.381,134.6861,0,186.0671l-93.0339,93.0338c-51.381,51.381-51.3811,134.6861,0,186.0671h0s465.1684-465.168,465.1684-465.168L652.513,1.4142h0c-51.381,51.3811-51.3811,134.6862,0,186.0672Z"/><path class="cls-1" d="M652.5131,745.6838l-93.0338-93.0339c-51.381-51.381-51.381-134.6861,0-186.0671h0s0-.0002,0-.0002c-51.381-51.381-51.381-134.6861,0-186.0671l93.0339-93.0338c51.381-51.381,51.3811-134.6861,0-186.0671h0S187.3448,466.5826,187.3448,466.5826l465.1681,465.1684h0c51.381-51.3811,51.3811-134.6862,0-186.0672Z"/><path class="cls-1" d="M652.5131,931.7512l-93.0338-93.0339c-51.381-51.381-51.381-134.6861,0-186.0671h0s0-.0002,0-.0002c-51.381-51.381-51.381-134.6861,0-186.0671l93.0339-93.0338c51.381-51.381,51.3811-134.6861,0-186.0671h0s-465.1684,465.168-465.1684,465.168l465.1681,465.1684h0c51.381-51.3811,51.3811-134.6862,0-186.0672Z"/><path class="cls-1" d="M652.5131,1117.5445l-93.0338-93.0339c-51.381-51.381-51.381-134.6861,0-186.0671h0s0-.0002,0-.0002c-51.381-51.381-51.381-134.6861,0-186.0671l93.0339-93.0338c51.381-51.381,51.3811-134.6861,0-186.0671h0s-465.1684,465.168-465.1684,465.168l465.1681,465.1684h0c51.381-51.3811,51.3811-134.6862,0-186.0672Z"/><path class="cls-1" d="M745.6838,652.5129l-93.0339,93.0338c-51.381,51.381-134.6861,51.381-186.0671,0h0s0,0,0,0c-51.381,51.381-134.6861,51.381-186.0671,0l-93.0338-93.0339c-51.381-51.381-134.6861-51.3811-186.0671,0h0s465.1681,465.1685,465.1681,465.1685l465.1684-465.1681h0c-51.381-51.3811-134.6861-51.3812-186.0671-.0002Z"/><path class="cls-1" d="M931.7512,652.5129l-93.0339,93.0338c-51.381,51.381-134.6861,51.381-186.0671,0h0s0,0,0,0c-51.381,51.381-134.6861,51.381-186.0671,0l-93.0338-93.0339c-51.381-51.381-134.6861-51.3811-186.0671,0h0s465.1681,465.1685,465.1681,465.1685l465.1684-465.1681h0c-51.381-51.3811-134.6861-51.3812-186.0671-.0002Z"/><path class="cls-1" d="M1117.5445,652.5129l-93.0339,93.0338c-51.381,51.381-134.6861,51.381-186.0671,0h0s0,0,0,0c-51.381,51.381-134.6861,51.381-186.0671,0l-93.0338-93.0339c-51.381-51.381-134.6861-51.3811-186.0671,0h0s465.1681,465.1685,465.1681,465.1685l465.1684-465.1681h0c-51.381-51.3811-134.6861-51.3812-186.0671-.0002Z"/><path class="cls-1" d="M559.3422,652.5131l93.0339-93.0338c51.381-51.381,134.6861-51.381,186.0671,0h0s0,0,0,0c51.381-51.381,134.6861-51.381,186.0671,0l93.0338,93.0339c51.381,51.381,134.6861,51.3811,186.0671,0h0s-465.1681-465.1685-465.1681-465.1685l-465.1684,465.1681h0c51.381,51.3811,134.6861,51.3812,186.0671.0002Z"/><path class="cls-1" d="M373.2748,652.5131l93.0339-93.0338c51.381-51.381,134.6861-51.381,186.0671,0h0s0,0,0,0c51.381-51.381,134.6861-51.381,186.0671,0l93.0338,93.0339c51.381,51.381,134.6861,51.3811,186.0671,0h0s-465.1681-465.1685-465.1681-465.1685l-465.1684,465.1681h0c51.381,51.3811,134.6861,51.3812,186.0671.0002Z"/><path class="cls-1" d="M187.4814,652.5131l93.0339-93.0338c51.381-51.381,134.6861-51.381,186.0671,0h0s0,0,0,0c51.381-51.381,134.6861-51.381,186.0671,0l93.0338,93.0339c51.381,51.381,134.6861,51.3811,186.0671,0h0S466.5827,187.3448,466.5827,187.3448L1.4142,652.513h0c51.381,51.3811,134.6861,51.3812,186.0671.0002Z"/></g></svg>