<?xml version="1.0" encoding="UTF-8"?><svg id="Layer_2" xmlns="http://www.w3.org/2000/svg" viewBox="0 0 1018.7042 223.3066"><defs><style>.cls-1{fill:#c62026;stroke-width:0px;}</style></defs><g id="Wordamrka"><path class="cls-1" d="M314.5002,35.8052l38.047-.6477h14.2155c31.3043,0,53.0793,13.1062,53.0793,46.7123,0,32.3631-24.1228,47.0485-55.4271,47.0485h-24.0305v58.8336h-26.7009l.8167-129.1761h0M361.6528,107.5578c20.6239,0,31.8566-8.5627,31.8566-25.688,0-17.3093-11.2327-22.3618-31.8566-22.3618l-21.2684-.3728-25.8842-.5593h0c27.8194.2762,25.8842,19.6696,25.8842,28.0637v20.9182h21.2684Z"/><path class="cls-1" d="M288.6839,35.8049l1.8408,6.6821c4.3755,11.5683,11.2045,15.4937,21.6943,15.4937h40.3281v-22.8231h-64.2701c-.3474,0,.4069.2898.4069.6474Z"/><path class="cls-1" d="M370.5488,107.649c-.272-.4087.0242.6746-.3389.9163l3.4487,4.5069c-2.6153,4.1029-20.3673,17.3012-10.6818,32.3294l27.8952,42.3505h33.4458l-53.769-80.103Z"/><path class="cls-1" d="M434.1034,37.2152h90.5984v22.4656h-63.8975s0,38.5777,0,38.5777h42.5631v22.4656h-42.5631v44.5622h66.1993v22.4656h-92.9002V37.2152Z"/><path class="cls-1" d="M534.7136,37.2152h46.5325c46.1278,0,73.3809,24.8593,73.3809,74.6699s-27.2532,75.8669-71.9999,75.8669h-41.5243V58.8521s-6.3893,0-6.3893,0v-21.6369ZM579.4967,166.1151c30.2914,0,47.6928-17.2172,47.6928-54.23s-17.4014-53.033-47.6928-53.033h-38.3939,0c14.7465,0,26.7009,11.9544,26.7009,26.7009v80.5621h11.6929Z"/><path class="cls-1" d="M689.0008,59.6808h-35.5414v-22.4656h100.1073v22.4656s-37.865,0-37.865,0v128.0712h-26.7009V59.6808Z"/><path class="cls-1" d="M783.052,126.4151h0l5.2992-18.368c4.7877-15.9283,9.2072-32.9617,13.3503-49.6265h.9207c4.4196,16.5266,8.8389,33.6981,13.6266,49.6265l9.3267,32.5875h0s.0007.0026.0007.0026l1.8037,6.302c.1653.2437.5868.4224.3188.4224h-.198l11.6736,40.7876h28.2664l-49.0741-150.5369h-31.3046l-49.074,150.5369h27.2534l11.7673-40.7876h0l6.0432-20.9464Z"/><path class="cls-1" d="M827.3799,146.9391c-.0371-.0548-.0656-.1117-.0656-.1719l-1.7382-6.1301-.0007-.0026c-4.1328-10.6171-10.5833-14.2195-20.4918-14.2195h-22.0316l-6.0432,20.9464h50.4919l-.1208-.4224Z"/><path class="cls-1" d="M929.487,37.6122h26.7009v128.0712l51.8879-.1224c6.6075-.1857,8.6669-.1065,10.6285-2.8776h0v25.4656h-89.2173V37.6122Z"/><path class="cls-1" d="M883.289,37.6122h26.7009v128.0712h0v22.4656h-26.7009V37.6122Z"/><rect class="cls-1" x="102.2845" y="80.1091" width="63.0885" height="63.0885" transform="translate(-39.8413 126.3269) rotate(-44.6678)"/><path class="cls-1" d="M111.136,178.4384l-22.1755-22.4342c-12.2472-12.39-12.1313-32.3624.2587-44.6095h0s0,0,0,0c-12.2472-12.39-12.1313-32.3624.2587-44.6095l22.4342-22.1755C124.302,32.3624,124.4178,12.39,112.1707,0h0S0,110.8773,0,110.8773l110.8773,112.1707h0c12.39-12.2472,12.5058-32.2196.2587-44.6096Z"/><path class="cls-1" d="M155.4869,223.3066l112.1707-110.8773L156.7802.2587h0c-12.39,12.2472-12.5058,32.2196-.2587,44.6096l22.1755,22.4342c12.2472,12.39,12.1313,32.3624-.2587,44.6095h0s0,0,0,0c12.2472,12.39,12.1313,32.3624-.2587,44.6095l-22.4342,22.1755c-12.39,12.2472-12.5058,32.2195-.2587,44.6095h0Z"/></g></svg>