<?xml version="1.0" encoding="UTF-8"?><svg id="Layer_2" xmlns="http://www.w3.org/2000/svg" viewBox="0 0 556.5456 556.5456"><defs><style>.cls-1{fill:none;stroke:#c62026;stroke-miterlimit:10;}</style></defs><g id="Layer_9"><path class="cls-1" d="M409.1185,343.6959v-65.4231c0-36.1321-29.2905-65.4228-65.4227-65.4229h0c0-36.1321-29.2908-65.423-65.4228-65.423h-65.4231c-36.1319,0-65.4228-29.2908-65.4228-65.4229h-65.4228s0,65.4228,0,65.4228h0c36.1322,0,65.4228,29.2909,65.4228,65.4229v65.4231c0,36.1321,29.2908,65.4228,65.4227,65.4229h.0002,0c0,36.1321,29.2906,65.423,65.4228,65.423h65.4228c36.1322,0,65.4228,29.2908,65.4228,65.4228h0s65.4228.0002,65.4228.0002v-65.4229h0c-36.1319,0-65.4228-29.2908-65.4228-65.4227ZM343.6957,343.6957h-130.8456s0-130.8457,0-130.8457h130.8456s0,130.8457,0,130.8457Z"/><path class="cls-1" d="M212.8497,409.1185h65.4231c36.1321,0,65.4228-29.2905,65.4229-65.4227h.0001c36.1319,0,65.4228-29.2908,65.4229-65.4228v-65.4231c0-36.1319,29.2908-65.4228,65.4229-65.4228h0v-65.4228s-65.4228,0-65.4228,0h0c0,36.1322-29.2909,65.4228-65.4229,65.4228h-65.4231c-36.1321,0-65.4228,29.2908-65.4229,65.4227v.0002h-.0001c-36.1319,0-65.4228,29.2906-65.4229,65.4228v65.4228c0,36.1322-29.2908,65.4228-65.4228,65.4228h-.0001s0,65.4228,0,65.4228h65.4229c0-36.1319,29.2908-65.4227,65.4227-65.4227ZM212.8499,343.6957v-130.8456s130.8457,0,130.8457,0v130.8456s-130.8457,0-130.8457,0Z"/><path class="cls-1" d="M324.5336,417.0558l46.2611-46.261c25.5492-25.5492,25.5494-66.9725,0-92.5218h0c25.5492-25.5492,25.5492-66.9728,0-92.5219l-46.261-46.2611c-25.5491-25.5492-25.5492-66.9726,0-92.5218h0L278.273.7071l-46.2609,46.2609h0c25.5493,25.5493,25.5491,66.9727,0,92.5218l-46.2611,46.261c-25.5492,25.5492-25.5492,66.9727,0,92.5218l.0002.0002h0c-25.5492,25.5492-25.5494,66.9726,0,92.5219l46.2609,46.2609c25.5493,25.5493,25.5492,66.9726,0,92.5217h0s46.2609,46.261,46.2609,46.261l46.261-46.261h0c-25.5491-25.5492-25.5492-66.9726,0-92.5217ZM278.2728,370.7948l-92.5218-92.5219,92.5219-92.5218,92.5218,92.5219-92.5219,92.5218Z"/><path class="cls-1" d="M139.4898,324.5336l46.261,46.2611c25.5492,25.5492,66.9725,25.5494,92.5218,0h0c25.5491,25.5492,66.9727,25.5493,92.5218.0002l46.2611-46.261c25.5492-25.5491,66.9726-25.5492,92.5218,0h0l46.2609-46.2609-46.2609-46.2609h0c-25.5493,25.5493-66.9727,25.5491-92.5218,0l-46.261-46.2611c-25.5492-25.5492-66.9727-25.5492-92.5218,0l-.0002.0002h0c-25.5491-25.5492-66.9725-25.5494-92.5218-.0002l-46.2609,46.2609c-25.5493,25.5493-66.9726,25.5492-92.5217,0h0S.7071,278.2725.7071,278.2725l46.261,46.261h0c25.5492-25.5491,66.9726-25.5492,92.5217,0ZM185.7508,278.2728l92.5219-92.5218,92.5218,92.5219-92.5219,92.5218-92.5218-92.5219Z"/><path class="cls-1" d="M374.1459,388.7677l25.0233-60.4484c13.82-33.3846-2.0402-71.6514-35.4249-85.4714h0c13.8199-33.3846-2.0404-71.6516-35.4249-85.4715l-60.4484-25.0233c-33.3845-13.8199-49.2449-52.0868-35.4249-85.4714h0l-60.4482-25.0232-25.0232,60.4482h0c33.3848,13.82,49.2449,52.0869,35.4249,85.4714l-25.0233,60.4484c-13.82,33.3846,2.0404,71.6515,35.4249,85.4714h.0002s0,.0002,0,.0002c-13.8199,33.3845,2.0402,71.6514,35.4249,85.4714l60.4482,25.0232c33.3848,13.82,49.2449,52.0868,35.425,85.4713h0s60.4482,25.0234,60.4482,25.0234l25.0233-60.4483h0c-33.3845-13.8199-49.2449-52.0868-35.425-85.4713ZM313.6978,363.7443l-120.8963-50.0465,50.0465-120.8963,120.8963,50.0465-50.0465,120.8963Z"/><path class="cls-1" d="M167.7779,374.1459l60.4484,25.0233c33.3846,13.82,71.6514-2.0402,85.4714-35.4249h.0001c33.3845,13.82,71.6515-2.0404,85.4714-35.4249l25.0233-60.4484c13.8199-33.3845,52.0868-49.2449,85.4714-35.4249h0l25.0232-60.4482-60.4482-25.0232h0c-13.82,33.3848-52.0869,49.2449-85.4714,35.4249l-60.4484-25.0233c-33.3846-13.82-71.6515,2.0404-85.4714,35.4249v.0002s-.0002,0-.0002,0c-33.3845-13.8199-71.6514,2.0402-85.4714,35.4249l-25.0232,60.4482c-13.82,33.3848-52.0868,49.2449-85.4713,35.425h-.0001s-25.0232,60.4481-25.0232,60.4481l60.4483,25.0233h0c13.8199-33.3845,52.0868-49.2449,85.4713-35.425ZM192.8013,313.6978l50.0465-120.8963,120.8963,50.0465-50.0465,120.8963-120.8963-50.0465Z"/><path class="cls-1" d="M267.9337,424.197l60.4376-25.0493c33.3787-13.8343,49.2226-52.1078,35.3882-85.4866h.0001c33.3786-13.8343,49.2225-52.1081,35.3882-85.4867l-25.0493-60.4376c-13.8343-33.3786,2.0095-71.6523,35.3882-85.4866h0l-25.0492-60.4374-60.4374,25.0492h0c13.8344,33.3788-2.0096,71.6524-35.3882,85.4866l-60.4376,25.0493c-33.3787,13.8343-49.2225,52.108-35.3882,85.4866v.0002s0,0,0,0c-33.3786,13.8343-49.2226,52.1078-35.3882,85.4866l25.0492,60.4374c13.8344,33.3788-2.0095,71.6523-35.3881,85.4866h-.0001s25.0492,60.4375,25.0492,60.4375l60.4375-25.0493h0c-13.8343-33.3786,2.0095-71.6523,35.3881-85.4866ZM242.8846,363.7596l-50.0984-120.8748,120.8748-50.0984,50.0984,120.8748-120.8748,50.0984Z"/><path class="cls-1" d="M132.3486,267.9337l25.0493,60.4376c13.8343,33.3787,52.1078,49.2226,85.4866,35.3882h0c13.8343,33.3787,52.108,49.2226,85.4866,35.3883l60.4376-25.0493c33.3786-13.8343,71.6523,2.0095,85.4866,35.3882h0l60.4374-25.0492-25.0492-60.4374h0c-33.3788,13.8344-71.6524-2.0096-85.4866-35.3882l-25.0493-60.4376c-13.8343-33.3787-52.108-49.2225-85.4866-35.3882h-.0002s0,0,0,0c-13.8343-33.3786-52.1078-49.2226-85.4866-35.3882l-60.4374,25.0492c-33.3788,13.8344-71.6523-2.0095-85.4866-35.3881h0s-60.4374,25.0491-60.4374,25.0491l25.0493,60.4375h0c33.3786-13.8343,71.6523,2.0095,85.4866,35.3881ZM192.786,242.8846l120.8748-50.0984,50.0984,120.8748-120.8748,50.0984-50.0984-120.8748Z"/></g></svg>