<svg id="Layer_1" data-name="Layer 1" xmlns="http://www.w3.org/2000/svg" viewBox="0 0 1920 788.26"><defs><style>.cls-1{fill:#fff;}</style></defs><path class="cls-1" d="M1148.53,277.44c-11.84,7.55-19.27,21.26-23.26,30.76-3.13,7.47,1.4,17.55,10.1,21.74,8.38,4,17.89,5.87,24,7.5,10.94,2.9,49-20,61.22-43.68,1.57-3,.29-7.25-2.88-10C1201.22,269.43,1171.65,262.68,1148.53,277.44Z"/><path class="cls-1" d="M620.07,329.94c8.38,4,17.89,5.87,24,7.5,10.94,2.9,49-20,61.22-43.68,1.56-3,.29-7.25-2.88-10-16.51-14.34-46.08-21.09-69.2-6.33C621.39,285,614,298.7,610,308.2,606.84,315.67,611.37,325.75,620.07,329.94Z"/><path class="cls-1" d="M1912,144c-15.42-8-39.65-18.21-62.56-18.44a14.51,14.51,0,0,0-11.56,5.77c-10.38,13.46-38.64,50.7-72.51,100.22-71.68-19.56-169.91-37.89-296.8-43.15a2205.86,2205.86,0,0,0-325.2,11q13.2-16.49,26.8-32.62a14.86,14.86,0,0,0-4.55-22.77c-15.42-8-39.65-18.2-62.55-18.44a14.54,14.54,0,0,0-11.58,5.78c-9.16,11.88-32.24,42.26-60.79,83.24-148.6,24.24-254.27,59-282.34,82.7a18.89,18.89,0,0,0-6.49,17.45c2.39,15.1,13.62,39.49,20.5,69.88-57.81,29.69-109.16,68.06-125,114.69-33.51,33.54-78.2,74.91-86.65,66.22C534,548.39,618.23,413.6,638.18,385.16a11.64,11.64,0,0,0-1.29-14.68C625.17,358.3,600.2,352.92,588.54,351c-3.9-.64-8,.14-10.68,2.8-76.24,75.9-100.81,182.63-95.29,207,5.61,24.8,40.91,38.15,72.7,38.15,16.8,0,50-30.9,77.59-60a99.54,99.54,0,0,0,4.1,19.39,57.94,57.94,0,0,0,18.11,27.33c16.36,13.55,49,30.17,101.2,13.32,65-21,123.13-116.28,86.26-220.33,31.29-15.49,68.43-31.47,112.41-47.77-46.11,76.57-89.47,162-104.76,232.64a19.09,19.09,0,0,0,1.93,13.21c5.12,9.4,24.61,23.6,58.44,22.15a47,47,0,0,0,25.34-8.77c14.57-10.46,41.82-31,64.05-53.43-1.55,10.82-1.67,19.19-.55,24.15,5.61,24.8,27.48,38.15,59.27,38.15,34.68,0,125-88.23,167.52-135.62,3.71-4.13,4.79-3.41,2.41,1.6-18.17,38.25-47.69,75.5-85.57,119.69a4.68,4.68,0,0,0,1.24,7c4.45,2.65,17.81,6.29,24.58,6.87a4.71,4.71,0,0,0,3.31-1.06c9.26-7.2,59.94-47.2,102.18-89.73,1.68-1.69,2.78-1.16,2.47,1.2-2.78,21.15-10.88,84.7,55.47,90.3,4.31.36,7.25-2.72,6.34-6.92-5.77-26.74-2.93-75.45,99.87-214.46a14.36,14.36,0,0,0,1.66-14.71c-4.87-10.09-17.22-25.84-47.18-27.9a27.14,27.14,0,0,0-21.79,8.92c-22.68,25-58.31,66.44-88.07,101.85-4.15,4.93-5.25,4.23-2.43-1.57,8.84-18.15,22.38-52.46,11-73.71-8.32-15.48-18.23-17.21-23.25-16.92a7.08,7.08,0,0,0-4.91,2.47c-18.28,21.1-182.91,222.68-196,209.24-16.68-17.15,67.55-151.94,87.49-180.38a11.64,11.64,0,0,0-1.28-14.68C1142,358.3,1117,352.92,1105.36,351c-3.9-.64-8,.14-10.68,2.8-46.68,46.46-74,104.48-86.88,148.1-9.34,10.54-37.15,40.19-70.31,59-2.78,1.58-4.16.47-3.07-2.54,38.37-106,98.67-211.83,171.27-310.09,98.41-10.31,217.84-16.18,354.3-10.65,106.28,4.32,204.27,17.43,280.66,30.75-35.93,54.83-74.6,119.31-103.67,181.91-37.54,48.05-104.29,122-158,119.56A14.83,14.83,0,0,1,1465.13,557c-5.68-41.76,11-104.4,97.2-148.32,2.73-1.39,3.52-.45,1.77,2.06a52.59,52.59,0,0,0-7.15,14.66,7.25,7.25,0,0,0,2,7.42c5.72,5.24,18.62,15.48,33.54,17.18a7.41,7.41,0,0,0,5.52-1.56c8.78-7.13,39.51-34.31,28.77-57.87-12.48-27.37-70.52-40.68-93.32-41.26C1497.7,348.35,1364.72,450.33,1395,547c3.5,11.19,12.46,19.9,21.83,27,12.66,9.54,54.31,25,73.17,25,29.07,0,72.85-25.47,111.84-56.52-2,7.15-3.77,14.18-5.26,21.06a19.15,19.15,0,0,0,1.93,13.21c5.11,9.39,24.56,23.57,58.3,22.15a47,47,0,0,0,25.45-8.75c9.33-6.69,23.87-17.52,39-30.34a5.57,5.57,0,0,0,1.86-2.92,17.39,17.39,0,0,0-2.41-14.56,5.68,5.68,0,0,0-8.09-1.16c-6.74,5.08-20.13,14.92-28.69,19.78-2.72,1.55-4.1.36-3-2.58,33.64-92.91,84.14-185.72,145-273.41,36.27,7.81,60.88,14.13,70.07,16.57a7.85,7.85,0,0,0,7.18-1.68l3.93-3.44a7.86,7.86,0,0,0-1.63-12.95,624.21,624.21,0,0,0-60-26.06c22.55-31,46.34-61.27,71.08-90.59A14.86,14.86,0,0,0,1912,144ZM699.52,571.1a2.12,2.12,0,0,1-2.74.12c-11-8.47-47.07-68.53,70.77-149.36C769.65,466.13,756.29,518.21,699.52,571.1Zm267.5-260a1094,1094,0,0,0-135.17,42.5,250.75,250.75,0,0,0-23.2-37.49A8.6,8.6,0,0,1,813,302.78c25.81-8.16,89.82-25.47,185.33-40.49C988,277.83,977.51,294.19,967,311.12Z"/><path class="cls-1" d="M304.19,3.12C145.87-16.83,22,62.11,2.74,148.41c-4.17,18.73.73,38.36,12.37,53.74,67.41,89,162.6,54.6,162.6,54.6,11.47-7.67,2.24-17.09-14.88-27.18a12.59,12.59,0,0,0-8.69-1.46,63,63,0,0,1-16.59.73,15.19,15.19,0,0,1-14-13.48c-6.17-58.5,88.51-199.08,239.56-149.17C561.41,131.7,405.53,508,156.39,564a5.58,5.58,0,0,1-6.69-4.16c-3.53-16.59-7.83-71.66,59.63-156.51,0,0,18.61,31.56,48.69,40.38,3.12.91,5.22-1,4.6-4.17-4.55-23.18-19.09-113.76,19.71-165.49a5.68,5.68,0,0,0-1.06-7.94c-7-5.37-22.14-13.72-41.18-6.19C214.32,270.11,126,374.25,6.15,363.75c-7.07-.62-8.24,2.45-2.49,6.56,19.9,14.25,69,40.51,140.76,19.44,0,0-101,109.81-58.88,168.1,41.85,58,110.16,63.57,135,63.41,110.62-.69,311.76-171.83,343.57-335.38C581.36,197.05,570.09,36.63,304.19,3.12Z"/><path class="cls-1" d="M322,748.29v-.22c0-22.1,16.65-40.2,40.53-40.2,14.65,0,23.43,4.89,30.64,12L382.3,732.41c-6-5.44-12.1-8.77-19.87-8.77-13.11,0-22.55,10.88-22.55,24.21v.22c0,13.32,9.22,24.43,22.55,24.43,8.88,0,14.32-3.56,20.43-9.11l10.88,11c-8,8.55-16.88,13.88-31.87,13.88C339,788.26,322,770.61,322,748.29Z"/><path class="cls-1" d="M498.45,709.2H534c9.88,0,17.54,2.78,22.65,7.89,4.33,4.33,6.66,10.43,6.66,17.76v.23c0,12.54-6.77,20.43-16.65,24.09l19,27.76h-20L529,762.06H515.55v24.87h-17.1ZM532.88,747c8.32,0,13.1-4.44,13.1-11v-.22c0-7.33-5.11-11.1-13.44-11.1h-17V747Z"/><path class="cls-1" d="M669.79,709.2h58.63v15.21H686.78v15.77h36.65v15.21H686.78v16.33H729v15.21H669.79Z"/><path class="cls-1" d="M861.9,708.65h15.76L911,786.93H893.1L886,769.5H853.13L846,786.93H828.59Zm18,45.75-10.33-25.21L859.23,754.4Z"/><path class="cls-1" d="M1022.13,725H998.48V709.2h64.4V725h-23.65v62h-17.1Z"/><path class="cls-1" d="M1167.82,709.2h17.1v77.73h-17.1Z"/><path class="cls-1" d="M1288.75,709.2h18.88L1327.94,764l20.33-54.75h18.43l-31.43,78.29h-15.1Z"/><path class="cls-1" d="M1469.75,709.2h58.63v15.21h-41.64v15.77h36.64v15.21h-36.64v16.33h42.19v15.21h-59.18Z"/></svg>