<?xml version="1.0" encoding="UTF-8"?><svg id="Layer_2" xmlns="http://www.w3.org/2000/svg" viewBox="0 0 62 62"><defs><style>.cls-1{fill:#000;}.cls-1,.cls-2{stroke-width:0px;}.cls-2{fill:#f0bc5e;}</style></defs><g id="Layer_1-2"><rect class="cls-2" x="28" y="6" width="16" height="10"/><rect class="cls-2" x="28" y="22" width="16" height="10"/><rect class="cls-1" x="14" y="60" width="34" height="2"/><rect class="cls-1" x="42" y="55" width="2" height="6"/><polygon class="cls-1" points="61 50 16.6973 50 13.6973 48 10 48 10 46 14.3027 46 17.3027 48 61 48 61 50"/><rect class="cls-1" x="12" y="50" width="2" height="2"/><rect class="cls-1" x="8" y="50" width="2" height="2"/><rect class="cls-1" x="4" y="50" width="2" height="2"/><path class="cls-1" d="M57,56H22v-2h35c1.6543,0,3-1.3457,3-3V19c0-1.6543-1.3457-3-3-3h-10v-2h10c2.7568,0,5,2.2432,5,5v32c0,2.7568-2.2432,5-5,5Z"/><path class="cls-1" d="M20,61h-2v-5H5c-2.7568,0-5-2.2432-5-5V19c0-2.7568,2.2432-5,5-5h2v2h-2c-1.6543,0-3,1.3457-3,3v32c0,1.6543,1.3457,3,3,3h15v7Z"/><path class="cls-1" d="M55.2363,44H16.6973l-7.5-5,7.5-5h38.539l.211.1055c.1045.0517,2.5527,1.3174,2.5527,4.8945s-2.4482,4.8428-2.5527,4.8945l-.211.1055ZM17.3027,42h37.4102c.3769-.2803,1.2871-1.1475,1.2871-3,0-1.8457-.9033-2.7129-1.29-3H17.3027l-4.5,3,4.5,3Z"/><rect class="cls-1" x="48" y="35" width="2" height="8"/><rect class="cls-1" x="44" y="35" width="2" height="8"/><rect class="cls-1" x="16" y="35" width="2" height="8"/><rect class="cls-1" x="40" y="38" width="5" height="2"/><rect class="cls-1" x="17" y="38" width="21" height="2"/><polygon class="cls-1" points="8 48 1 48 1 46 6 46 6 0 48 0 48 35 46 35 46 2 8 2 8 48"/><rect class="cls-1" x="46" y="43" width="2" height="6"/><path class="cls-2" d="M22,18h-12V6h12v12Z"/><polygon class="cls-1" points="15.8447 15.5693 13.168 11.5547 14.832 10.4453 16.1553 12.4307 24.293 4.293 25.707 5.707 15.8447 15.5693"/><path class="cls-2" d="M22,32h-12v-12h12v12Z"/><polygon class="cls-1" points="15.8447 29.5693 13.168 25.5547 14.832 24.4453 16.1553 26.4307 24.293 18.293 25.707 19.707 15.8447 29.5693"/><rect class="cls-1" x="28" y="6" width="2" height="2"/><rect class="cls-1" x="32" y="6" width="12" height="2"/><rect class="cls-1" x="28" y="10" width="2" height="2"/><rect class="cls-1" x="32" y="10" width="12" height="2"/><rect class="cls-1" x="28" y="14" width="2" height="2"/><rect class="cls-1" x="32" y="14" width="12" height="2"/><rect class="cls-1" x="28" y="22" width="2" height="2"/><rect class="cls-1" x="32" y="22" width="12" height="2"/><rect class="cls-1" x="28" y="26" width="2" height="2"/><rect class="cls-1" x="32" y="26" width="12" height="2"/><rect class="cls-1" x="28" y="30" width="2" height="2"/><rect class="cls-1" x="32" y="30" width="12" height="2"/></g></svg>