<?xml version="1.0" encoding="UTF-8"?><svg id="Layer_2" xmlns="http://www.w3.org/2000/svg" viewBox="0 0 62 62"><defs><style>.cls-1{fill:#000;}.cls-1,.cls-2{stroke-width:0px;}.cls-2{fill:#f0bc5e;}</style></defs><g id="Layer_1-2"><path class="cls-2" d="M40.375,8.5186c-.0859-.2295-.1816-.4581-.2861-.6846l1.3506-2.3652-3.9082-3.9083-2.3653,1.3506c-.2265-.1045-.4551-.2002-.6846-.2861l-.7177-2.625h-5.5274l-.7177,2.625c-.2295.0859-.4581.1816-.6846.2861l-2.3652-1.3506-3.9083,3.9083,1.3506,2.3652c-.1045.2265-.2002.4551-.2861.6846l-2.625.7177v2.7637h7c0-2.7614,2.2386-5,5-5s5,2.2386,5,5h7v-2.7637l-2.625-.7177Z"/><path class="cls-2" d="M31,58c-6.0654,0-11-4.9346-11-11s4.9346-11,11-11,11,4.9346,11,11-4.9346,11-11,11Z"/><polygon class="cls-1" points="38.707 23.707 37.293 22.293 44 15.5859 44 13 18 13 18 15.5859 24.707 22.293 23.293 23.707 16 16.4141 16 11 46 11 46 16.4141 38.707 23.707"/><path class="cls-1" d="M43,28h-24c-1.1025,0-2-.8975-2-2v-2c0-1.1025.8975-2,2-2h24c1.1025,0,2,.8975,2,2v2c0,1.1025-.8975,2-2,2ZM19,24v2h24.002l-.002-2h-24Z"/><path class="cls-1" d="M39.5283,62h-17.0566c-3.1397,0-5.9619-1.7441-7.3662-4.5527l-.1055-.211v-21.7509c0-1.8702.7285-3.628,2.0508-4.9502l4.2422-4.2422,1.414,1.414-4.2422,4.2422c-.9443.9444-1.4648,2.2002-1.4648,3.5362v21.2695c1.0947,2.0078,3.1709,3.2451,5.4717,3.2451h17.0566c2.3008,0,4.377-1.2373,5.4717-3.2451v-21.2695c0-1.336-.5205-2.5918-1.4648-3.5362l-4.2422-4.2422,1.414-1.414,4.2422,4.2422c1.3223,1.3222,2.0508,3.08,2.0508,4.9502v21.7509l-.1055.211c-1.4043,2.8086-4.2265,4.5527-7.3662,4.5527Z"/><path class="cls-1" d="M37,12h-2c0-2.2061-1.7939-4-4-4s-4,1.7939-4,4h-2c0-3.3086,2.6914-6,6-6s6,2.6914,6,6Z"/><polygon class="cls-1" points="35 34 27 34 27 27 29 27 29 32 33 32 33 27 35 27 35 34"/><path class="cls-1" d="M31,52c-1.6543,0-3-1.3457-3-3h2c0,.5518.4482,1,1,1s1-.4482,1-1-.4482-1-1-1c-1.6543,0-3-1.3457-3-3s1.3457-3,3-3,3,1.3457,3,3h-2c0-.5518-.4482-1-1-1s-1,.4482-1,1,.4482,1,1,1c1.6543,0,3,1.3457,3,3s-1.3457,3-3,3Z"/><rect class="cls-1" x="30" y="40" width="2" height="3"/><rect class="cls-1" x="30" y="51" width="2" height="3"/><rect class="cls-1" x="40" y="15" width="5" height="2"/><rect class="cls-1" x="17" y="15" width="21" height="2"/><rect class="cls-1" x="44" y="24" width="13" height="2"/><path class="cls-1" d="M59,28c-1.6543,0-3-1.3457-3-3s1.3457-3,3-3,3,1.3457,3,3-1.3457,3-3,3ZM59,24c-.5518,0-1,.4482-1,1s.4482,1,1,1,1-.4482,1-1-.4482-1-1-1Z"/><path class="cls-1" d="M57,46c-1.6543,0-3-1.3457-3-3s1.3457-3,3-3,3,1.3457,3,3-1.3457,3-3,3ZM57,42c-.5518,0-1,.4482-1,1s.4482,1,1,1,1-.4482,1-1-.4482-1-1-1Z"/><polygon class="cls-1" points="58 41 56 41 56 32 44 32 44 30 58 30 58 41"/><path class="cls-1" d="M55,10c-1.6543,0-3-1.3457-3-3s1.3457-3,3-3,3,1.3457,3,3-1.3457,3-3,3ZM55,6c-.5518,0-1,.4482-1,1s.4482,1,1,1,1-.4482,1-1-.4482-1-1-1Z"/><polygon class="cls-1" points="56 20 42 20 42 18 54 18 54 9 56 9 56 20"/><rect class="cls-1" x="5" y="24" width="13" height="2"/><path class="cls-1" d="M3,28c-1.6543,0-3-1.3457-3-3s1.3457-3,3-3,3,1.3457,3,3-1.3457,3-3,3ZM3,24c-.5518,0-1,.4482-1,1s.4482,1,1,1,1-.4482,1-1-.4482-1-1-1Z"/><path class="cls-1" d="M5,46c-1.6543,0-3-1.3457-3-3s1.3457-3,3-3,3,1.3457,3,3-1.3457,3-3,3ZM5,42c-.5518,0-1,.4482-1,1s.4482,1,1,1,1-.4482,1-1-.4482-1-1-1Z"/><polygon class="cls-1" points="6 41 4 41 4 30 18 30 18 32 6 32 6 41"/><path class="cls-1" d="M7,10c-1.6543,0-3-1.3457-3-3s1.3457-3,3-3,3,1.3457,3,3-1.3457,3-3,3ZM7,6c-.5518,0-1,.4482-1,1s.4482,1,1,1,1-.4482,1-1-.4482-1-1-1Z"/><polygon class="cls-1" points="20 20 6 20 6 9 8 9 8 18 20 18 20 20"/></g></svg>