<?xml version="1.0" encoding="UTF-8"?><svg id="Layer_2" xmlns="http://www.w3.org/2000/svg" viewBox="0 0 62 62"><defs><style>.cls-1{fill:#000;}.cls-1,.cls-2{stroke-width:0px;}.cls-2{fill:#f0bc5e;}</style></defs><g id="Layer_1-2"><circle class="cls-2" cx="9" cy="9" r="5"/><rect class="cls-1" x="4" y="40" width="2" height="8"/><rect class="cls-1" x="4" y="36" width="2" height="2"/><rect class="cls-1" x="4" y="50" width="2" height="2"/><rect class="cls-1" x="8" y="27" width="2" height="34"/><rect class="cls-1" x="30" y="12" width="2" height="10"/><rect class="cls-1" x="36.2499" y="19.2784" width="10.9436" height="1.9998" transform="translate(-2.1189 35.4411) rotate(-45)"/><rect class="cls-1" x="18.4234" y="12.7355" width="1.9998" height="13.3756" transform="translate(-8.0454 19.4233) rotate(-45)"/><rect class="cls-1" x="56" y="41" width="2" height="6"/><rect class="cls-1" x="52" y="27" width="2" height="34"/><path class="cls-1" d="M57,62H5c-2.7568,0-5-2.2432-5-5v-26c0-2.7568,2.2432-5,5-5h16.2666v2H5c-1.6543,0-3,1.3457-3,3v26c0,1.6543,1.3457,3,3,3h52c1.6543,0,3-1.3457,3-3v-26c0-1.6543-1.3457-3-3-3h-16.2666v-2h16.2666c2.7568,0,5,2.2432,5,5v26c0,2.7568-2.2432,5-5,5Z"/><polygon class="cls-1" points="50 58 12 58 12 30 19 30 19 32 14 32 14 56 48 56 48 32 42.6064 32 42.6064 30 50 30 50 58"/><path class="cls-2" d="M31,47c-7.168,0-13-5.832-13-13s5.832-13,13-13,13,5.832,13,13-5.832,13-13,13Z"/><path class="cls-1" d="M26,40.6182v-13.2364l13.2363,6.6182-13.2363,6.6182ZM28,30.6182v6.7636l6.7637-3.3818-6.7637-3.3818Z"/><path class="cls-1" d="M9,12c-1.6543,0-3-1.3457-3-3s1.3457-3,3-3,3,1.3457,3,3-1.3457,3-3,3ZM9,8c-.5518,0-1,.4482-1,1s.4482,1,1,1,1-.4482,1-1-.4482-1-1-1Z"/><rect class="cls-1" x="8" y="11" width="2" height="5"/><path class="cls-1" d="M9,25c-2.7568,0-5-2.2432-5-5h2c0,1.6543,1.3457,3,3,3s3-1.3457,3-3h2c0,2.7568-2.2432,5-5,5Z"/><path class="cls-1" d="M3.3223,16.5947c-.3008-.6191-.6846-1.2002-1.1407-1.7285C.4561,12.8682-.2988,10.2061.1113,7.5645.7207,3.6514,4.0293.4941,7.9766.0566c2.5634-.2832,5.1211.5323,7.0254,2.2373,1.9052,1.7061,2.998,4.1504,2.998,6.7061,0,2.1709-.7871,4.2686-2.2158,5.9053-.4463.5117-.8213,1.0781-1.1143,1.6845l-1.8008-.871c.3711-.7676.8457-1.4834,1.4092-2.129,1.1104-1.2714,1.7217-2.9023,1.7217-4.5898,0-1.9883-.8496-3.8896-2.332-5.2168-1.503-1.3447-3.4532-1.9648-5.4707-1.7383-3.0674.3399-5.6368,2.7901-6.1094,5.8272-.3252,2.0908.2461,4.1103,1.6084,5.6875.5683.6592,1.0478,1.3857,1.4248,2.1601l-1.7988.875Z"/><path class="cls-1" d="M13,21H5c-1.6543,0-3-1.3457-3-3s1.3457-3,3-3h8c1.6543,0,3,1.3457,3,3s-1.3457,3-3,3ZM5,17c-.5518,0-1,.4482-1,1s.4482,1,1,1h8c.5518,0,1-.4482,1-1s-.4482-1-1-1H5Z"/><path class="cls-2" d="M54.7148,20h-5.4296l-.5547-1.6191c-.1143-.045-.2295-.0928-.3438-.1436l-1.539.7529-3.8389-3.8398.7539-1.5371c-.0508-.1143-.0986-.2295-.1436-.3438l-1.6191-.5547v-5.4296l1.6191-.5547c.045-.1143.0928-.2295.1436-.3438l-.7529-1.539,3.8379-3.8379,1.539.7529c.1143-.0508.2295-.0986.3438-.1436l.5547-1.6191h5.4296l.5547,1.6191c.1143.045.2295.0928.3438.1436l1.539-.7529,3.8379,3.8379-.7529,1.539c.0508.1143.0986.2295.1436.3438l1.6191.5547v5.4296l-1.6191.5547c-.045.1143-.0928.2295-.1436.3438l.7539,1.5371-3.8389,3.8398-1.539-.7529c-.1143.0508-.2295.0986-.3438.1436l-.5547,1.6191Z"/><path class="cls-1" d="M52,15c-2.7568,0-5-2.2432-5-5s2.2432-5,5-5,5,2.2432,5,5-2.2432,5-5,5ZM52,7c-1.6543,0-3,1.3457-3,3s1.3457,3,3,3,3-1.3457,3-3-1.3457-3-3-3Z"/><path class="cls-1" d="M31,10c-1.6543,0-3-1.3457-3-3s1.3457-3,3-3,3,1.3457,3,3-1.3457,3-3,3ZM31,6c-.5518,0-1,.4482-1,1s.4482,1,1,1,1-.4482,1-1-.4482-1-1-1Z"/><path class="cls-1" d="M38,7h-2c0-2.7568-2.2432-5-5-5s-5,2.2432-5,5h-2c0-3.8594,3.1406-7,7-7s7,3.1406,7,7Z"/></g></svg>