<?xml version="1.0" encoding="UTF-8"?><svg id="Layer_2" xmlns="http://www.w3.org/2000/svg" viewBox="0 0 62 62"><defs><style>.cls-1{fill:#000;}.cls-1,.cls-2{stroke-width:0px;}.cls-2{fill:#f0bc5e;}</style></defs><g id="Layer_1-2"><rect class="cls-2" x="44" y="26" width="10" height="9"/><rect class="cls-2" x="8" y="26" width="10" height="9"/><path class="cls-2" d="M24,14.7207v-5.4414l-2.6816-.8945c-.0547-.1387-.1123-.2774-.1739-.417l1.2647-2.5293-3.8477-3.8477-2.5293,1.2647c-.1396-.0616-.2783-.1192-.417-.1739l-.8945-2.6816h-5.4414l-.8945,2.6816c-.1387.0547-.2774.1123-.417.1739l-2.5293-1.2647-3.8477,3.8477,1.2647,2.5293c-.0616.1396-.1192.2783-.1739.417l-2.6816.8945v5.4414l2.6816.8945c.0547.1387.1123.2774.1739.417l-1.2647,2.5293,3.8477,3.8477,2.5293-1.2647c.1396.0616.2783.1192.417.1739l.8945,2.6816h5.4414l.8945-2.6816c.1387-.0547.2774-.1123.417-.1739l2.5293,1.2647,3.8477-3.8477-1.2647-2.5293c.0616-.1396.1192-.2783.1739-.417l2.6816-.8945ZM12,17c-2.7614,0-5-2.2386-5-5s2.2386-5,5-5,5,2.2386,5,5-2.2386,5-5,5Z"/><path class="cls-1" d="M36,49h-2v-12c0-.5518-.4482-1-1-1s-1,.4482-1,1v12h-2v-12c0-1.6543,1.3457-3,3-3s3,1.3457,3,3v12Z"/><path class="cls-1" d="M40,49h-2v-9c0-.5518-.4482-1-1-1s-1,.4482-1,1v9h-2v-9c0-1.6543,1.3457-3,3-3s3,1.3457,3,3v9Z"/><path class="cls-1" d="M40,62h-16v-1.5967c0-.6787-.2334-1.3437-.6582-1.874l-2.4727-3.0908c-.5312-.6641-.8857-1.46-1.0263-2.3018l-1.7998-10.7949c-.0284-.1729-.043-.3477-.043-.5225v-.6386c0-1.7539,1.4268-3.1807,3.1807-3.1807h2.6543l1.791,9.8535c.0517.2822.1855.5313.374.7246v-23.5781c0-1.6543,1.3457-3,3-3s3,1.3457,3,3v20h-2v-20c0-.5518-.4482-1-1-1s-1,.4482-1,1v26h-1c-1.6426,0-3.0479-1.1729-3.3418-2.7891l-1.4932-8.2109h-.9843c-.6514,0-1.1807.5293-1.1807,1.1807v.6386c0,.0655.0049.1309.0156.1953l1.7998,10.794c.084.5049.2969.9824.6153,1.3799l2.4736,3.0908c.6221.7783.998,1.7314,1.0791,2.7207h12.0332c.0811-.9893.457-1.9424,1.0791-2.7207l2.2461-2.8086c.4248-.5303.6582-1.1953.6582-1.874v-10.5967c0-.5518-.4482-1-1-1s-1,.4482-1,1v7h-2v-7c0-1.6543,1.3457-3,3-3s3,1.3457,3,3v10.5967c0,1.1308-.3896,2.2402-1.0957,3.124l-2.2461,2.8086c-.4248.5303-.6582,1.1953-.6582,1.874v1.5967Z"/><path class="cls-1" d="M26.6641,27.5283c-2.2256-.9424-3.6641-3.1123-3.6641-5.5283,0-3.3086,2.6914-6,6-6s6,2.6914,6,6c0,2.3857-1.4121,4.5449-3.5986,5.5l-.8008-1.832c1.458-.6377,2.3994-2.0772,2.3994-3.668,0-2.2061-1.7939-4-4-4s-4,1.7939-4,4c0,1.6113.959,3.0586,2.4434,3.6865l-.7793,1.8418Z"/><path class="cls-1" d="M12,18c-3.3086,0-6-2.6914-6-6s2.6914-6,6-6,6,2.6914,6,6-2.6914,6-6,6ZM12,8c-2.2061,0-4,1.7939-4,4s1.7939,4,4,4,4-1.7939,4-4-1.7939-4-4-4Z"/><path class="cls-1" d="M52,20c-5.5137,0-10-4.4863-10-10S46.4863,0,52,0s10,4.4863,10,10-4.4863,10-10,10ZM52,2c-4.4111,0-8,3.5889-8,8s3.5889,8,8,8,8-3.5889,8-8-3.5889-8-8-8Z"/><path class="cls-1" d="M52,16c-3.3086,0-6-2.6914-6-6s2.6914-6,6-6,6,2.6914,6,6-2.6914,6-6,6ZM52,6c-2.2061,0-4,1.7939-4,4s1.7939,4,4,4,4-1.7939,4-4-1.7939-4-4-4Z"/><rect class="cls-1" x="51" y="1" width="2" height="4"/><rect class="cls-1" x="44.9378" y="4.5001" width="2.0003" height="3.9997" transform="translate(17.3385 43.0324) rotate(-59.9978)"/><rect class="cls-1" x="43.9381" y="12.4998" width="3.9997" height="2.0003" transform="translate(-.5965 24.7736) rotate(-29.995)"/><rect class="cls-1" x="51" y="15" width="2" height="4"/><rect class="cls-1" x="57.0618" y="11.5001" width="2.0003" height="3.9997" transform="translate(17.338 57.0316) rotate(-59.9978)"/><rect class="cls-1" x="56.0621" y="5.4998" width="3.9997" height="2.0003" transform="translate(4.5268 29.8972) rotate(-29.995)"/><polygon class="cls-1" points="27.1484 17.2939 26.1973 13 24 13 24 11 27.8027 11 29.1016 16.8623 27.1484 17.2939"/><polygon class="cls-1" points="32.5742 18.5547 31.0938 17.209 38.5576 9 43 9 43 11 39.4424 11 32.5742 18.5547"/><polygon class="cls-1" points="57 36 42.6074 36 31.9795 26.1309 33.3408 24.666 43.3926 34 57 34 57 36"/><path class="cls-1" d="M59,38c-1.6543,0-3-1.3457-3-3s1.3457-3,3-3,3,1.3457,3,3-1.3457,3-3,3ZM59,34c-.5518,0-1,.4482-1,1s.4482,1,1,1,1-.4482,1-1-.4482-1-1-1Z"/><polygon class="cls-1" points="20.5244 36 5 36 5 34 19.4756 34 25.332 25.541 26.9766 26.6797 20.5244 36"/><path class="cls-1" d="M3,38c-1.6543,0-3-1.3457-3-3s1.3457-3,3-3,3,1.3457,3,3-1.3457,3-3,3ZM3,34c-.5518,0-1,.4482-1,1s.4482,1,1,1,1-.4482,1-1-.4482-1-1-1Z"/><rect class="cls-1" x="52" y="26" width="2" height="9"/><rect class="cls-1" x="48" y="30" width="2" height="5"/><rect class="cls-1" x="44" y="28" width="2" height="7"/><rect class="cls-1" x="8" y="30" width="2" height="5"/><rect class="cls-1" x="12" y="26" width="2" height="9"/><rect class="cls-1" x="16" y="28" width="2" height="7"/></g></svg>