<?xml version="1.0" encoding="UTF-8"?><svg id="Layer_2" xmlns="http://www.w3.org/2000/svg" viewBox="0 0 61.9971 61.9995"><defs><style>.cls-1{fill:#000;}.cls-1,.cls-2{stroke-width:0px;}.cls-2{fill:#f0bc5e;}</style></defs><g id="Layer_1-2"><circle class="cls-2" cx="30.9971" cy="10.9995" r="7"/><rect class="cls-2" x="51.9971" y="52.9995" width="5" height="8"/><path class="cls-1" d="M52.9971,35.9995h-22v-2h22c3.8594,0,7-3.1406,7-7s-3.1406-7-7-7-7,3.1406-7,7h-2c0-4.9629,4.0371-9,9-9s9,4.0371,9,9-4.0371,9-9,9Z"/><path class="cls-1" d="M25.9971,59.9995h-2v-2h-11c-2.2061,0-4-1.7939-4-4s1.7939-4,4-4h3c1.1025,0,2-.8975,2-2s-.8975-2-2-2h-7c-2.2061,0-4-1.7939-4-4s1.7939-4,4-4h17c.5518,0,1-.4482,1-1v-1H8.9971c-2.6973,0-5.2295-1.1953-6.9473-3.2783C.333,30.6382-.3515,27.8989.1719,25.2046c.6836-3.5215,3.5088-6.3467,7.0303-7.0303,2.6894-.5215,5.4336.1611,7.5166,1.8779,2.083,1.7178,3.2783,4.25,3.2783,6.9473h-2c0-2.0986-.9297-4.0684-2.5508-5.4043-1.6201-1.335-3.7568-1.8643-5.8633-1.458-2.7285.5303-4.9179,2.7197-5.4482,5.4482-.4092,2.1065.1221,4.2432,1.458,5.8633,1.3359,1.6211,3.3057,2.5508,5.4043,2.5508h20v3c0,1.6543-1.3457,3-3,3H8.9971c-1.1025,0-2,.8975-2,2s.8975,2,2,2h7c2.2061,0,4,1.7939,4,4s-1.7939,4-4,4h-3c-1.1025,0-2,.8975-2,2s.8975,2,2,2h13v4Z"/><rect class="cls-1" x="27.9971" y="53.9995" width="2" height="6"/><rect class="cls-1" x="31.9971" y="53.9995" width="2" height="6"/><polygon class="cls-1" points="46.9971 57.9995 35.9971 57.9995 35.9971 53.9995 37.9971 53.9995 37.9971 55.9995 46.9971 55.9995 46.9971 57.9995"/><path class="cls-1" d="M57.9971,61.9995h-7c-2.7568,0-5-2.2432-5-5s2.2432-5,5-5h7v10ZM50.9971,53.9995c-1.6543,0-3,1.3457-3,3s1.3457,3,3,3h5v-6h-5Z"/><rect class="cls-1" x="56.9971" y="53.9995" width="5" height="2"/><rect class="cls-1" x="56.9971" y="57.9995" width="5" height="2"/><path class="cls-1" d="M23.5498,20.3745c-.3388-1.0586-.8554-2.0791-1.5332-3.0361-1.6211-2.2842-2.2998-5.0889-1.9111-7.8985C20.7793,4.5669,24.8213.6274,29.7168.0727c3.1338-.3613,6.2715.6368,8.6055,2.7207,2.335,2.086,3.6748,5.0772,3.6748,8.2061,0,2.3193-.7168,4.5381-2.0742,6.417-.668.9219-1.1729,1.9141-1.5029,2.9482l-1.9063-.6074c.3955-1.2373.9971-2.4189,1.7881-3.5127,1.1094-1.5351,1.6953-3.3486,1.6953-5.2451,0-2.5605-1.0957-5.0078-3.0078-6.7148-1.9375-1.7305-4.4404-2.5157-7.0479-2.2256-4.0009.4541-7.3047,3.6728-7.8554,7.6543-.3184,2.3037.2363,4.6006,1.5615,6.4677.7969,1.1241,1.4053,2.3291,1.8066,3.5821l-1.9043.6113Z"/><path class="cls-1" d="M36.9971,24.9995h-12c-1.6543,0-3-1.3457-3-3s1.3457-3,3-3h12c1.6543,0,3,1.3457,3,3s-1.3457,3-3,3ZM24.9971,20.9995c-.5518,0-1,.4482-1,1s.4482,1,1,1h12c.5518,0,1-.4482,1-1s-.4482-1-1-1h-12Z"/><path class="cls-1" d="M30.9971,14.9995c-2.2061,0-4-1.7939-4-4s1.7939-4,4-4,4,1.7939,4,4-1.7939,4-4,4ZM30.9971,8.9995c-1.1025,0-2,.8975-2,2s.8975,2,2,2,2-.8975,2-2-.8975-2-2-2Z"/><rect class="cls-1" x="29.9971" y="13.9995" width="2" height="6"/><path class="cls-1" d="M10.0293,19.0727l-1.9941-.1406c.5332-7.5771,6.6582-13.5596,14.2471-13.916l.0937,1.998c-6.5762.3086-11.8838,5.4932-12.3467,12.0586Z"/><path class="cls-1" d="M50.8369,19.2085c-.8593-4.7569-4.997-8.209-9.8398-8.209v-2c5.8105,0,10.7773,4.1436,11.8086,9.8535l-1.9688.3555Z"/><path class="cls-1" d="M30.9971,30.9995c-3.8594,0-7-3.1406-7-7h2c0,2.7568,2.2432,5,5,5s5-2.2432,5-5h2c0,3.8594-3.1406,7-7,7Z"/></g></svg>