<?xml version="1.0" encoding="UTF-8"?><svg id="Layer_2" xmlns="http://www.w3.org/2000/svg" viewBox="0 0 62 62"><defs><style>.cls-1{fill:#000;}.cls-1,.cls-2{stroke-width:0px;}.cls-2{fill:#f0bc5e;}</style></defs><g id="Layer_1-2"><path class="cls-2" d="M31,50H1v-18h6.2881c1.374-3.6055,4.8252-6,8.7119-6s7.3379,2.3945,8.7119,6h6.2881v18Z"/><rect class="cls-2" x="42" y="13" width="14" height="8"/><rect class="cls-1" x="40" y="56" width="18" height="2"/><path class="cls-1" d="M53,57h-2v-3c0-1.1025-.8975-2-2-2s-2,.8975-2,2v3h-2v-3c0-2.2061,1.7939-4,4-4s4,1.7939,4,4v3Z"/><path class="cls-1" d="M56,62h-14c-1.6543,0-3-1.3457-3-3v-11.7871c0-14.0254-1.0059-28.1807-2.9902-42.0713l-.0098-.1416V0h26l-.0098,5.1416c-1.9843,13.8906-2.9902,28.0459-2.9902,42.0713v11.7871c0,1.6543-1.3457,3-3,3ZM38,4.9287c1.9902,13.9619,3,28.1885,3,42.2842v11.7871c0,.5518.4482,1,1,1h14c.5518,0,1-.4482,1-1v-11.7871c0-14.0957,1.0098-28.3223,3-42.2842v-2.9287h-22v2.9287Z"/><rect class="cls-1" x="37" y="4" width="24" height="2"/><rect class="cls-1" x="40" y="46" width="18" height="2"/><rect class="cls-1" x="40" y="1" width="2" height="4"/><rect class="cls-1" x="44" y="1" width="2" height="4"/><rect class="cls-1" x="48" y="1" width="2" height="4"/><rect class="cls-1" x="52" y="1" width="2" height="4"/><rect class="cls-1" x="56" y="1" width="2" height="4"/><path class="cls-2" d="M49,40c-3.8594,0-7-3.5889-7-8s3.1406-8,7-8,7,3.5889,7,8-3.1406,8-7,8Z"/><rect class="cls-1" x="39.9629" y="42" width="18.0742" height="2"/><rect class="cls-1" x="37.5352" y="8" width="22.9296" height="2"/><rect class="cls-1" x="42" y="20" width="14" height="2"/><rect class="cls-1" x="42" y="16" width="14" height="2"/><rect class="cls-1" x="42" y="12" width="14" height="2"/><path class="cls-1" d="M23,15h-2V3c0-.5518-.4482-1-1-1h-8c-.5518,0-1,.4482-1,1v12h-2V3c0-1.6543,1.3457-3,3-3h8c1.6543,0,3,1.3457,3,3v12Z"/><path class="cls-1" d="M25,62H7c-3.8594,0-7-3.1406-7-7V23c0-4.9629,4.0371-9,9-9h14c4.9629,0,9,4.0371,9,9v32c0,3.8594-3.1406,7-7,7ZM9,16c-3.8594,0-7,3.1406-7,7v32c0,2.7568,2.2432,5,5,5h18c2.7568,0,5-2.2432,5-5V23c0-3.8594-3.1406-7-7-7h-14Z"/><rect class="cls-1" x="10" y="4" width="12" height="2"/><rect class="cls-1" x="13" y="5" width="2" height="10"/><rect class="cls-1" x="17" y="5" width="2" height="10"/><path class="cls-1" d="M16.3369,46h-.6738c-3.1231,0-5.6631-2.54-5.6631-5.6631,0-1.0635.2979-2.1006.8613-3.001l5.1387-8.2226,5.1387,8.2226c.5634.9004.8613,1.9375.8613,3.001,0,3.1231-2.54,5.6631-5.6631,5.6631ZM16,32.8867l-3.4434,5.5098c-.3642.582-.5566,1.2529-.5566,1.9404,0,2.0195,1.6436,3.6631,3.6631,3.6631h.6738c2.0195,0,3.6631-1.6436,3.6631-3.6631,0-.6875-.1924-1.3584-.5566-1.9404l-3.4434-5.5098Z"/><rect class="cls-1" x="1" y="54" width="30" height="2"/></g></svg>