<?xml version="1.0" encoding="UTF-8"?><svg id="Layer_2" xmlns="http://www.w3.org/2000/svg" viewBox="0 0 57.51 25.14"><defs><style>.cls-1{fill:#fff;stroke-width:0px;}</style></defs><g id="Modern_Campus"><g id="Modern_Campus_Logo-R_RGB_Primary_Blue"><path class="cls-1" d="m45.84,3.51c-.34-.12-.7-.19-1.07-.19-1.78,0-3.22,1.44-3.22,3.22v4.78h1.31v-4.78c0-1.05.86-1.91,1.91-1.91.4,0,.77.12,1.07.33v-1.45Z"/><path class="cls-1" d="m17.53,3.32c-2.17,0-3.98,1.58-3.98,3.99s1.81,4.01,3.98,4.01,3.99-1.6,3.99-4.01-1.82-3.99-3.99-3.99m0,6.66c-1.38,0-2.54-1.09-2.54-2.67s1.16-2.66,2.54-2.66,2.57,1.09,2.57,2.66-1.17,2.67-2.57,2.67"/><path class="cls-1" d="m36.17,3.32c-2.17,0-3.91,1.56-3.91,3.98s1.74,4.02,3.91,4.02c1.47,0,2.84-.72,3.49-2.04l-1.22-.49c-.44.77-1.29,1.19-2.22,1.19-1.3,0-2.28-.7-2.49-2.05h6.19c.02-.21.03-.42.03-.64,0-2.41-1.61-3.98-3.78-3.98m-2.43,3.39c.23-1.37,1.14-2.05,2.43-2.05s2.18.75,2.36,2.05h-4.79Z"/><path class="cls-1" d="m29.26,0v4.73c-.35-.63-1.27-1.34-2.69-1.34-2.29,0-3.77,1.82-3.77,3.96s1.47,3.97,3.97,3.97c2.19,0,3.9-1.61,3.9-3.97V0h-1.41Zm-2.57,9.99c-1.37,0-2.47-1.14-2.47-2.65s1.1-2.63,2.47-2.63c1.24,0,2.57,1,2.57,2.63s-1.21,2.65-2.57,2.65"/><path class="cls-1" d="m52.25,17.32l-1.12-.28c-.49-.11-.98-.39-.98-.91,0-.59.49-1.06,1.22-1.06.6,0,1.21.39,1.22.98h1.37c0-1.53-1.34-2.22-2.62-2.22-1.53,0-2.61.99-2.61,2.25s.73,1.84,2,2.18l1.04.24c.6.13,1.04.42,1.04.99,0,.62-.57,1.09-1.53,1.09s-1.5-.54-1.52-1.19h-1.32c.07,1.56,1.47,2.43,2.84,2.43,1.58,0,2.95-.9,2.95-2.31,0-.86-.41-1.81-1.99-2.2"/><path class="cls-1" d="m14.84,21.83h1.37s0-4.01,0-4.01c0-2.57-1.92-3.99-3.98-3.99-2.17,0-3.98,1.58-3.98,3.99s1.7,4.01,3.87,4.01c1.05,0,2.26-.48,2.68-1.39l.03,1.39Zm-.03-4.01c0,1.56-1.17,2.67-2.57,2.67s-2.54-1.11-2.54-2.67,1.16-2.65,2.54-2.65,2.57,1.08,2.57,2.65"/><path class="cls-1" d="m32.37,25.14v-4.72c.35.63,1.27,1.34,2.69,1.34,2.29,0,3.76-1.84,3.76-3.97s-1.47-3.96-3.95-3.96c-2.18,0-3.89,1.59-3.89,3.96v7.35h1.4Zm2.56-9.97c1.37,0,2.46,1.12,2.46,2.62s-1.1,2.65-2.46,2.65c-1.24,0-2.56-1.02-2.56-2.65s1.21-2.62,2.56-2.62"/><path class="cls-1" d="m0,17.82c0-2.41,1.91-3.99,4.09-3.99,1.19,0,2.23.47,2.9,1.2l-.9.93c-.47-.49-1.16-.8-1.96-.8-1.5,0-2.7,1.09-2.7,2.66s1.2,2.67,2.7,2.67c.8,0,1.48-.31,1.96-.8l.9.93c-.67.75-1.71,1.2-2.9,1.2-2.18,0-4.09-1.6-4.09-4.01"/><path class="cls-1" d="m53.54,6.54v4.78h-1.31v-4.78c0-1.05-.86-1.91-1.91-1.91s-1.91.86-1.91,1.91v4.78h-1.31v-4.78c0-1.78,1.44-3.22,3.22-3.22s3.22,1.44,3.22,3.22Z"/><path class="cls-1" d="m46.85,18.61v-4.78h-1.31v4.78c0,1.05-.86,1.91-1.91,1.91s-1.91-.86-1.91-1.91v-4.78h-1.31v4.78c0,1.78,1.44,3.22,3.22,3.22s3.22-1.44,3.22-3.22Z"/><path class="cls-1" d="m9.07,3.32c-1.05,0-1.98.5-2.56,1.28-.59-.78-1.52-1.28-2.57-1.28-1.78,0-3.22,1.44-3.22,3.22v4.78h1.31v-4.78c0-1.05.86-1.91,1.91-1.91s1.91.86,1.91,1.91v4.78h1.31v-4.78h0c0-1.05.86-1.91,1.91-1.91s1.91.86,1.91,1.91v4.78h1.31v-4.78c0-1.78-1.44-3.22-3.22-3.22Z"/><path class="cls-1" d="m26.15,13.83c-1.05,0-1.98.5-2.56,1.28-.59-.78-1.52-1.28-2.57-1.28-1.78,0-3.22,1.44-3.22,3.22v4.78h1.31v-4.78c0-1.05.86-1.91,1.91-1.91s1.91.86,1.91,1.91v4.78h1.31v-4.78h0c0-1.05.86-1.91,1.91-1.91s1.91.86,1.91,1.91v4.78h1.31v-4.78c0-1.78-1.44-3.22-3.22-3.22Z"/><path class="cls-1" d="m56.15,20.82h-.35v1.01h-.2v-1.01h-.35v-.19h.91v.19Zm1.36-.19v1.2h-.2v-.86l-.39.62h-.02l-.39-.62v.86h-.2v-1.2h.2l.4.64.4-.64h.2Z"/></g></g></svg>